<svg xmlns="http://www.w3.org/2000/svg" xmlns:xlink="http://www.w3.org/1999/xlink" width="250" height="250" viewBox="0 0 250 250">
  <defs>
    <clipPath id="clip-Category_Icon_Smart_Watch">
      <rect width="250" height="250"/>
    </clipPath>
  </defs>
  <g id="Category_Icon_Smart_Watch" data-name="Category Icon – Smart Watch" clip-path="url(#clip-Category_Icon_Smart_Watch)">
    <path id="watch-fitness-regular" d="M156.25,39.849V15.625A15.627,15.627,0,0,0,140.625,0H46.875A15.627,15.627,0,0,0,31.25,15.625V39.849A39.078,39.078,0,0,0,0,78.125v93.75a39.078,39.078,0,0,0,31.25,38.276v24.224A15.627,15.627,0,0,0,46.875,250h93.75a15.627,15.627,0,0,0,15.625-15.625V210.151a39.069,39.069,0,0,0,31.25-38.276V78.125A39.073,39.073,0,0,0,156.25,39.849ZM54.688,23.438h78.125V39.063H54.688Zm78.125,203.125H54.688V210.938h78.125Zm31.25-54.687A15.646,15.646,0,0,1,148.438,187.5H39.063a15.646,15.646,0,0,1-15.625-15.625V78.125A15.646,15.646,0,0,1,39.063,62.5H148.438a15.646,15.646,0,0,1,15.625,15.625ZM129.155,98.584c-10.767-8.394-24.834-4.658-32.026,2.129l-3.384,3.193-3.384-3.193C83.35,94.1,69.224,90.1,58.335,98.584a21.218,21.218,0,0,0-1.7,32.612l33.223,31.348a5.729,5.729,0,0,0,7.769,0L130.85,131.2a21.214,21.214,0,0,0-1.694-32.612Z" transform="translate(31)"/>
  </g>
</svg>
