<svg xmlns="http://www.w3.org/2000/svg" width="31.991" height="19.194" viewBox="0 0 31.991 19.194">
  <path id="memory-light" d="M24.793,74.4h1.6V68h-4.8v6.4Zm-1.6-4.8h1.6v3.2h-1.6Zm-6.4,4.8h1.6V68H13.6v6.4Zm-1.6-4.8h1.6v3.2H15.2ZM8.8,74.4h1.6V68H5.6v6.4ZM7.2,69.6H8.8v3.2H7.2Zm24.393-.8h.4V65.6a1.6,1.6,0,0,0-1.6-1.6H1.6A1.6,1.6,0,0,0,0,65.6v3.2H.4a1.2,1.2,0,0,1,0,2.4H0v12H31.991v-12h-.4a1.2,1.2,0,0,1,0-2.4Zm-1.2,12.8h-4v-.8a.8.8,0,1,0-1.6,0v.8h-4.8v-.8a.8.8,0,1,0-1.6,0v.8H13.6v-.8a.8.8,0,1,0-1.6,0v.8H7.2v-.8a.8.8,0,1,0-1.6,0v.8h-4V78.4H30.391Zm0-14.125a2.8,2.8,0,0,0,0,5.058V76.8H1.6V72.527a2.8,2.8,0,0,0,0-5.058V65.6H30.391Z" transform="translate(0 -64)"/>
</svg>
