<svg xmlns="http://www.w3.org/2000/svg" width="18.458" height="29.534" viewBox="0 0 18.458 29.534">
  <path id="mobile-light_1_" data-name="mobile-light (1)" d="M11.075,24A1.846,1.846,0,1,1,9.229,22.15,1.844,1.844,0,0,1,11.075,24ZM18.458,2.769v24a2.769,2.769,0,0,1-2.769,2.769H2.769A2.769,2.769,0,0,1,0,26.765v-24A2.769,2.769,0,0,1,2.769,0H15.69A2.769,2.769,0,0,1,18.458,2.769Zm-1.846,0a.926.926,0,0,0-.923-.923H2.769a.926.926,0,0,0-.923.923v24a.926.926,0,0,0,.923.923H15.69a.926.926,0,0,0,.923-.923Z"/>
</svg>
