<svg xmlns="http://www.w3.org/2000/svg" width="26.508" height="23.194" viewBox="0 0 26.508 23.194">
  <path id="camera-light" d="M16.79,33.657a.42.42,0,0,1,.388.269l1.144,3.044h5.7a.831.831,0,0,1,.828.828V52.709a.831.831,0,0,1-.828.828H2.485a.831.831,0,0,1-.828-.828V37.8a.831.831,0,0,1,.828-.828H8.191L9.231,34.2a.83.83,0,0,1,.777-.538H16.79m0-1.657H10.008a2.482,2.482,0,0,0-2.325,1.61l-.642,1.7H2.485A2.486,2.486,0,0,0,0,37.8V52.709a2.486,2.486,0,0,0,2.485,2.485H24.023a2.486,2.486,0,0,0,2.485-2.485V37.8a2.486,2.486,0,0,0-2.485-2.485H19.467l-.74-1.967A2.059,2.059,0,0,0,16.79,32ZM13.254,51.467a6.213,6.213,0,1,1,6.213-6.213A6.218,6.218,0,0,1,13.254,51.467Zm0-10.769a4.556,4.556,0,1,0,4.556,4.556A4.563,4.563,0,0,0,13.254,40.7Z" transform="translate(0 -32)"/>
</svg>
