<svg xmlns="http://www.w3.org/2000/svg" width="14.998" height="24.701" viewBox="0 0 14.998 24.701">
  <g id="_2dd9cb335207dbe8d9cd142b731db18a" data-name="2dd9cb335207dbe8d9cd142b731db18a" transform="translate(-202.489 -10)">
    <g id="Group_7554" data-name="Group 7554" transform="translate(202.488 10)">
      <path id="Path_51" data-name="Path 51" d="M206.792-501.9c-.434.217-.492.424-.492,1.838v1.1h-.96a3.891,3.891,0,0,0-1.264.1,2.3,2.3,0,0,0-1.312,1.057c-.285.521-.275.043-.275,9.663,0,6.3.014,8.887.053,9.07a2.329,2.329,0,0,0,1.688,1.722c.135.034,2.2.053,5.76.053,5.958,0,5.756,0,6.281-.246a2.8,2.8,0,0,0,.989-1.008,3.12,3.12,0,0,0,.183-.555c.039-.212.048-2.673.039-9.215l-.014-8.925-.111-.28a2.409,2.409,0,0,0-1.3-1.293,2.9,2.9,0,0,0-1.2-.13l-.931-.019v-1.2c0-1.307,0-1.346-.275-1.6a.874.874,0,0,0-.27-.178c-.092-.034-1.167-.053-3.256-.053C207.043-502,206.994-502,206.792-501.9Zm5.442,2.287v.651h-4.2v-1.3h4.2v.651Zm3.228,2.4a.728.728,0,0,1,.217.193l.1.135.014,8.428c0,4.636,0,8.587-.019,8.785-.024.309-.048.381-.164.5l-.135.135H204.5l-.135-.135a.621.621,0,0,1-.169-.352c-.014-.116-.024-4.072-.014-8.785l.014-8.573.1-.135a.731.731,0,0,1,.217-.193c.092-.048,1.317-.063,5.471-.063S215.37-497.258,215.461-497.209Z" transform="translate(-202.489 502)"/>
      <path id="Path_52" data-name="Path 52" d="M331.9-235.753a1,1,0,0,0-.328.212.858.858,0,0,0,.159,1.336l.178.111,3.5.014c2.4.01,3.556,0,3.676-.039a.991.991,0,0,0,.545-.439,1.1,1.1,0,0,0,0-.757.965.965,0,0,0-.473-.42,24.026,24.026,0,0,0-3.642-.068C333.522-235.8,331.988-235.777,331.9-235.753Z" transform="translate(-328.075 242.512)"/>
      <path id="Path_53" data-name="Path 53" d="M332.247-63.591a.853.853,0,0,0-.121,1.573c.212.1.246.1,3.686.1,2.123,0,3.531-.019,3.633-.048a.958.958,0,0,0,.516-.444,1.1,1.1,0,0,0,0-.757.992.992,0,0,0-.545-.439C339.146-63.678,332.488-63.663,332.247-63.591Z" transform="translate(-328.402 74.701)"/>
      <path id="Path_54" data-name="Path 54" d="M331.9,93.467a1,1,0,0,0-.328.212.858.858,0,0,0,.159,1.336l.178.111,3.5.014c2.4.01,3.556,0,3.676-.039a.991.991,0,0,0,.545-.439,1.1,1.1,0,0,0,0-.757.965.965,0,0,0-.473-.42,24.024,24.024,0,0,0-3.642-.068C333.522,93.419,331.988,93.443,331.9,93.467Z" transform="translate(-328.075 -78.41)"/>
      <path id="Path_55" data-name="Path 55" d="M331.941,265.755a.93.93,0,0,0-.347.212.846.846,0,0,0,.222,1.365c.212.1.246.1,3.686.1,2.123,0,3.531-.019,3.633-.048a.958.958,0,0,0,.516-.444,1.1,1.1,0,0,0,0-.757.992.992,0,0,0-.545-.439C338.864,265.683,332.192,265.688,331.941,265.755Z" transform="translate(-328.091 -246.351)"/>
    </g>
  </g>
</svg>
